<?xml version="1.0" encoding="UTF-8"?>
<svg id="Layer_1" data-name="Layer 1" xmlns="http://www.w3.org/2000/svg" viewBox="0 0 520.94 515.29">
  <defs>
    <style>
      .cls-1 {
        fill: #231f20;
      }
    </style>
  </defs>
  <polygon class="cls-1" points="443.6 283.84 414.04 300.03 260.85 383.94 115.3 301.27 85.77 284.5 51.53 302.08 81.05 318.85 260.85 420.96 448.32 318.27 477.88 302.08 443.6 283.84"/>
  <polygon class="cls-1" points="442.93 235.66 408.65 254.44 379.09 270.63 260.85 335.4 150.2 272.56 120.68 255.79 86.44 236.35 51.53 254.26 85.77 273.71 115.3 290.48 260.85 373.14 414.04 289.23 443.6 273.04 477.88 254.26 442.93 235.66"/>
  <polygon class="cls-1" points="268.56 94.33 51.53 205.72 86.44 225.55 120.68 245 150.2 261.76 260.85 324.6 379.09 259.84 408.65 243.65 442.93 224.87 477.88 205.72 268.56 94.33"/>
</svg>