<svg width="1200" height="630" viewBox="0 0 1200 630" fill="none" xmlns="http://www.w3.org/2000/svg">
  <rect width="1200" height="630" rx="32" fill="#0F172A"/>
  <rect x="54" y="54" width="1092" height="522" rx="24" fill="url(#paint0_linear)"/>
  <path d="M126 188H624" stroke="white" stroke-opacity="0.16" stroke-width="2"/>
  <path d="M126 254H846" stroke="white" stroke-opacity="0.12" stroke-width="2"/>
  <path d="M126 320H760" stroke="white" stroke-opacity="0.12" stroke-width="2"/>
  <path d="M126 386H534" stroke="white" stroke-opacity="0.12" stroke-width="2"/>
  <rect x="788" y="160" width="240" height="240" rx="28" fill="white" fill-opacity="0.08"/>
  <rect x="820" y="194" width="176" height="26" rx="13" fill="white" fill-opacity="0.14"/>
  <rect x="820" y="236" width="122" height="18" rx="9" fill="#F8FAFC" fill-opacity="0.5"/>
  <rect x="820" y="282" width="130" height="12" rx="6" fill="white" fill-opacity="0.12"/>
  <rect x="820" y="306" width="148" height="12" rx="6" fill="white" fill-opacity="0.12"/>
  <rect x="820" y="330" width="104" height="12" rx="6" fill="white" fill-opacity="0.12"/>
  <circle cx="1026" cy="456" r="62" fill="#FFD1F4" fill-opacity="0.18"/>
  <circle cx="176" cy="122" r="14" fill="#F8FAFC" fill-opacity="0.5"/>
  <circle cx="218" cy="122" r="14" fill="#F8FAFC" fill-opacity="0.24"/>
  <circle cx="260" cy="122" r="14" fill="#F8FAFC" fill-opacity="0.12"/>
  <defs>
    <linearGradient id="paint0_linear" x1="126" y1="98" x2="1078" y2="542" gradientUnits="userSpaceOnUse">
      <stop stop-color="#17385F"/>
      <stop offset="0.52" stop-color="#494880"/>
      <stop offset="1" stop-color="#9062AE"/>
    </linearGradient>
  </defs>
</svg>
